<svg xmlns="http://www.w3.org/2000/svg" viewBox="0 0 566.77 673.27"><title>CalliLucasText</title><g id="Layer_2" data-name="Layer 2"><g id="Layer_1-2" data-name="Layer 1"><path d="M510,491.52c-13.1,0-18.14-10.25-18.14-26.55,0-19,6-30.91,18.31-30.91,14.11,0,18.65,13.27,18.65,38.64,0,2.35,0,4.71-.17,6.89C524.6,487,516.36,491.52,510,491.52Zm.17-67.37c-26.38,0-44.86,18.48-44.86,40.82,0,20.67,10.92,39.32,36.29,39.32,9.91,0,19.66-4.2,24.53-9.58H527c-6.22,31.92-26,44.86-47,44.86l.33,8.56c40.49,0,74.6-22.17,74.6-70.72C554.84,445.32,537.53,424.15,510.15,424.15ZM393.06,544.94h47.71l1-5.71c-4.7-1.18-11.59-4.2-11.59-13.1v-100h-7.73L391.21,442l1,6.55H404v77.62c0,8.9-7.06,11.92-11.93,13.1Zm-42.34,3.19c8.57,0,15.62-6.38,15.62-15.28,0-9.24-7-15.46-15.62-15.46s-15.62,6.22-15.62,15.46C335.1,541.75,342.15,548.13,350.72,548.13Zm-109-42.33v-.67l34.44-48.72H277V505.8Zm77.95,10.25,2.69-10.25h-19V427.34h-19l-57,81,2,7.73H277v10.24c0,8.4-7.23,11.76-11.93,12.94l1,5.71H314.1l1-5.71c-4.87-1.18-11.76-4.37-11.76-12.94V516.05ZM199,548.13c8.57,0,15.62-6.38,15.62-15.28,0-9.24-7-15.46-15.62-15.46s-15.62,6.22-15.62,15.46C183.4,541.75,190.45,548.13,199,548.13Zm-76.44-11.08c-15.12,0-21-18.32-21-51.08s5.88-50.9,21-50.9c15.46,0,21.17,18.14,21.17,50.9S138,537.05,122.58,537.05Zm0,11.08c30.91,0,47.71-24.86,47.71-62.16,0-37.12-16.8-61.82-47.71-61.82-30.74,0-47.71,24.7-47.71,61.82C74.87,523.27,91.84,548.13,122.58,548.13ZM2.63,544.94H50.34l1-5.71c-4.7-1.18-11.59-4.2-11.59-13.1v-100H32L.78,442l1,6.55H13.55v77.62c0,8.9-7,11.92-11.93,13.1Z"/><path d="M548.5,628c-8-4.31-10.5-7-10.5-11.45,0-3.67,2.74-6.4,6.93-6.4,5,0,7.35,1.68,11.66,6.51L565.3,608c-5.25-6.82-10.92-10.5-20-10.5-12.39,0-20.58,8.72-20.58,19.74,0,12.18,6.62,17.75,17.54,23.42,8.6,4.41,11.23,7.76,11.23,12,0,4.94-2.73,8-8.19,8-4.41,0-9.13-2.73-13.54-8.39l-8.93,9.55c5,6.3,12,11.55,21.94,11.55,13.65,0,22-8.82,22-21C566.77,639.88,561.21,634.84,548.5,628Zm-35.07-29.4h-12v30.45c0,4.62.32,12.6.42,17.11-1.36-4.09-4-10.92-5.77-15.33L483.2,598.62H470v73.49h12v-31c0-4.62-.11-12.18-.21-16.69,1.36,4.3,3.67,10.29,5.56,14.91l13.54,32.75h12.6Zm-72,0H428.6l-18.8,73.49h13.44l3.47-15.32h16.48l3.47,15.32H460.2ZM429.54,644.5l2-8.92c1.36-6,2.83-13.86,3.36-17.64.52,3.67,2.2,12.18,3.46,17.85l2,8.71Zm-27.19,15H376.83V639.15h16.49V626.76H376.83V611.22H401.4v-12.6H363.71v73.49h38.64Zm-49-.21h-23V598.62H317.19v73.49h36.12ZM294.2,641.56c7.14-3.36,12.39-9.76,12.39-20,0-15.23-9.14-22.89-23.42-22.89H263.64v73.49h13.13V644.19h4.3l11.45,27.92H306.8Zm-10.92-9.66h-6.51V611.43h5.77c7.88,0,10.92,3.67,10.92,10.29S290,631.9,283.28,631.9Zm-54.92,28.24c-7.87,0-11.13-9.23-11.13-24.88s3.05-24.67,10.92-24.67,11,9.24,11,24.88S236.13,660.14,228.36,660.14Zm0-62.68c-17.11,0-24.57,16.8-24.57,38s7.25,37.8,24.36,37.8,24.47-16.8,24.47-38S245.37,597.46,228.36,597.46Zm-67.3,1.16L157.49,626c-.74,5.36-1.79,15.75-2.31,20.79-.63-5-2.52-15.43-3.57-20.79l-5.36-27.4H135.44L130.08,626c-1.05,5.36-2.83,15.75-3.46,20.79-.53-5-1.58-15.43-2.31-20.79l-3.57-27.4H108.35l11.86,73.49h11l6.19-30.86c1.47-7.14,2.52-13.34,3.26-18.48.73,5,1.78,11.34,3.25,18.48l6.2,30.86h11.34l11.86-73.49Zm-59.33,60.89H76.22V639.15H92.7V626.76H76.22V611.22h24.57v-12.6H63.1v73.49h38.63ZM49.44,598.62h-12v30.45c0,4.62.32,12.6.42,17.11-1.36-4.09-4-10.92-5.77-15.33L19.21,598.62H6v73.49H18v-31c0-4.62-.11-12.18-.21-16.69,1.36,4.3,3.67,10.29,5.56,14.91l13.54,32.75h12.6Z"/><path d="M531.3,378.61h-2V351.25h2c6.72,0,8.33,6,8.33,13.74S538,378.61,531.3,378.61Zm0-34.67h-9.48v42h9.3c9.84,0,16.19-6.3,16.19-21.06S541.38,343.94,531.3,343.94Zm-17.47,34.79H499.26V367.09h9.42V360h-9.42v-8.88h14v-7.19H491.76v42h22.07Zm-31.67-34.79h-7.5v42h7.5Zm-22.44,24.53c4.08-1.92,7.07-5.58,7.07-11.46,0-8.69-5.21-13.07-13.37-13.07H442.26v42h7.5V370h2.46l6.54,16h8.16ZM453.48,363h-3.72v-11.7h3.3c4.5,0,6.24,2.1,6.24,5.88S457.32,363,453.48,363Zm-25.86,5.52A11.89,11.89,0,0,0,434.7,357c0-8.69-5.22-13.07-13.38-13.07H410.16v42h7.5V370h2.46l6.54,16h8.16ZM421.38,363h-3.72v-11.7H421c4.5,0,6.24,2.1,6.24,5.88S425.22,363,421.38,363Zm-29-19H385l-10.74,42H382l2-8.76h9.42l2,8.76h7.74Zm-6.78,26.21,1.14-5.1c.78-3.42,1.62-7.92,1.92-10.08.3,2.11,1.26,7,2,10.2l1.14,5ZM367.2,343.94h-7.45l-5,15.53c-1.2,3.72-2.4,7.38-2.82,9.48-.36-2-1.56-5.57-2.82-9.48l-5-15.53H336.6v42h6.72V372.37c0-5-.06-9.6-.12-12.72.84,3,2.22,7.74,3.78,12.48L351.84,387l4.86-14.88c1.55-4.8,2.93-9.48,3.78-12.48-.06,3.12-.12,7.74-.12,12.72v13.56h6.84Zm-53.94,19.61H300v7h6c0,6.24-1.38,8.52-5.94,8.52s-6.36-5.28-6.36-14.22,1.74-14.09,6.24-14.09c2.88,0,4.8,1.43,5.88,5.39l7-2.28c-1.8-7.26-6.42-10.61-12.78-10.61-9.78,0-14,9.6-14,21.71s4.14,21.6,13.92,21.6c8.76,0,13.32-5.76,13.32-15.84Zm-35-19.61h-6.84v17.39c0,2.64.18,7.2.24,9.78-.78-2.34-2.28-6.24-3.3-8.76l-7.38-18.41h-7.56v42h6.84v-17.7c0-2.64-.06-7-.12-9.54.78,2.46,2.1,5.88,3.18,8.52L271,385.93h7.2Zm-34.44,0h-7.5v42h7.5Zm-14.7,0h-24.9v7.19h8.7v34.8h7.5v-34.8h8.7Zm-29.4,0h-24.9v7.19h8.7v34.8H191v-34.8h8.7ZM169.2,378.73H154.62V367.09H164V360h-9.42v-8.88h14v-7.19H147.12v42H169.2Zm-30.12-15.18H125.82v7h6c0,6.24-1.38,8.52-5.94,8.52s-6.36-5.28-6.36-14.22,1.74-14.09,6.24-14.09c2.88,0,4.8,1.43,5.88,5.39l7-2.28c-1.8-7.26-6.42-10.61-12.78-10.61-9.78,0-14,9.6-14,21.71s4.14,21.6,13.92,21.6c8.76,0,13.32-5.76,13.32-15.84Zm-49,15.18H75.48V367.09H84.9V360H75.48v-8.88h14v-7.19H68v42H90.06ZM53.34,368.47A11.89,11.89,0,0,0,60.42,357c0-8.69-5.22-13.07-13.38-13.07H35.88v42h7.5V370h2.46l6.54,16h8.16ZM47.1,363H43.38v-11.7h3.3c4.5,0,6.24,2.1,6.24,5.88S50.94,363,47.1,363Zm-29-19H10.74L0,385.93H7.68l2-8.76h9.42l2,8.76H28.8Zm-6.78,26.21,1.14-5.1c.78-3.42,1.62-7.92,1.92-10.08.3,2.11,1.26,7,2,10.2l1.14,5Z"/><path d="M363.91,147.63h46.93l1.71-7.41c-6.08-1.71-9.88-7.22-9.88-16.53v-79h-2.85a86.48,86.48,0,0,1-35.91,13.87l-1.52,7.41c5.89,1.71,9.88,7.41,9.88,16.53v41.23c0,9.31-4,14.82-9.88,16.53Zm22.8-111.15c11.59,0,18.43-8.36,18.43-16.91S398.3,2.28,386.71,2.28c-12,0-18.43,8.74-18.43,17.29S374.74,36.48,386.71,36.48ZM306.53,147.63h46.93l1.53-7.41c-5.9-1.71-9.89-7.22-9.89-16.53V33.06c0-7.79,0-21.47,2.66-32.11L345.29,0a100.77,100.77,0,0,1-38.76,14.82l-1.71,7.41c5.89,1.52,9.88,7.22,9.88,16.53v84.93c0,9.31-4,14.82-9.88,16.53Zm-57,0h46.93l1.52-7.41c-5.89-1.71-9.88-7.22-9.88-16.53V33.06c0-7.79,0-21.47,2.66-32.11L288.3,0a100.77,100.77,0,0,1-38.76,14.82l-1.71,7.41c5.89,1.52,9.88,7.22,9.88,16.53v84.93c0,9.31-4,14.82-9.88,16.53Zm-62.32-14.25c-8.36,0-14.82-5.51-14.82-15,0-12.92,11.78-19.38,26.6-22.61l3,20.14C202.23,124.83,194.82,133.38,187.22,133.38Zm62.32,3.42a11.7,11.7,0,0,1-4.94,1.14c-5.89,0-9.5-6.27-10.64-16.15L229,82.27c-3.42-26-20.71-37.43-42.18-37.43-27.55,0-39.52,12.73-39.52,24.51,0,9.12,5.13,14.82,13.87,14.82,8.55,0,15.77-6.27,13.68-15.39-1.14-5.89,3.8-9.69,9.12-9.69,5.7,0,10.45,4.18,11.4,12l2.28,15.2c-26.6,4.94-56.43,11.21-56.43,38,0,16.91,14.44,27,32.3,27,10.64,0,24.13-3.8,30.59-16.15h1.14c4.18,13.3,15.58,16.15,24.7,16.15,6.46,0,16.15-1.71,22.23-7.79ZM76.64,151.24c35.15,0,53.77-25.46,56.81-52.25l-8.93-2.28c-3.61,12-12.54,31.54-34.39,31.54-23.18,0-45.22-23-45.22-60,0-27.55,18.05-42.94,35.15-42.94C100.77,25.27,116,39.9,123,59.09l8.93-1.71L123.19,11h-2.66a36.24,36.24,0,0,1-16,3.61C96.21,14.63,89.18,11,75.88,11,38.45,11,9.38,39.9,9.38,80.18,9.38,121.6,35,151.24,76.64,151.24Z"/><path d="M480.75,121.79c0-8.85,6.73-15.93,13.69-20.41,9,6.49,10.85,22.77,18.64,34.81a37.61,37.61,0,0,1-14,2.71C487,138.9,480.75,130.05,480.75,121.79Zm14.87-51.33c4.95,0,8.49,4,8.49,10.74s-3.42,10.5-8.49,10.5-8.62-4-8.62-10.62S490.54,70.46,495.62,70.46Zm58.88,45.31c-5,0-8.26,3.07-8.26,7.2,0,5.19,4.6,6.61,4.6,11.33,0,4.25-3.78,6.72-7.67,6.72-4.37,0-7.32-2.71-9.91-7a38.45,38.45,0,0,0,10.38-26.78c0-7.08,5.67-10.39,9.8-11.45l-1.18-4.6H523.11l-1.06,4.6c4.13,1.06,9.79,3.66,9.79,11.09a33.27,33.27,0,0,1-4,16.29c-4.48-9.68-9.79-20.65-21.24-25.49V96.66c7.67-2.48,12.27-8,12.27-16,0-11.45-9.44-17.82-23.24-17.82s-23.25,6.26-23.25,17.7A15.66,15.66,0,0,0,480,94.42v.94c-12.27,4.37-20.53,14.75-20.53,27.73,0,12.27,10.86,26.78,34.34,26.78a59,59,0,0,0,26.19-6c4.72,3.65,11,6,19.71,6,14.75,0,26-7.78,26-20.88C565.71,122,562.17,115.77,554.5,115.77Z"/><path d="M401.66,285.38c-8.36,0-14.82-5.51-14.82-15,0-12.92,11.78-19.38,26.6-22.61l3,20.14C416.67,276.83,409.26,285.38,401.66,285.38ZM464,288.8a11.7,11.7,0,0,1-4.94,1.14c-5.89,0-9.5-6.27-10.64-16.15l-4.94-39.52c-3.42-26-20.71-37.43-42.18-37.43-27.55,0-39.52,12.73-39.52,24.51,0,9.12,5.13,14.82,13.87,14.82,8.55,0,15.77-6.27,13.68-15.39-1.14-5.89,3.8-9.69,9.12-9.69,5.7,0,10.45,4.18,11.4,12l2.28,15.2c-26.6,4.94-56.43,11.21-56.43,38,0,16.91,14.44,27,32.3,27,10.64,0,24.13-3.8,30.59-16.15h1.14c4.18,13.3,15.58,16.15,24.7,16.15,6.46,0,16.15-1.71,22.23-7.79ZM306.47,303.24c28.88,0,40.47-17.29,43.7-36.1l-6.08-2.28c-4.56,6.46-14.82,14.63-27,14.63-23,0-35.34-15.58-35.34-43.51,0-15.58,9.12-25.84,18.43-25.84,22.61,0,9.88,33.06,35,33.06,8,0,14.82-7.22,14.82-15,0-17.1-19.76-31.35-44.84-31.35-29.45,0-53.58,19.76-53.58,53C251.56,278,273.22,303.24,306.47,303.24ZM233.7,275.69v-79h-2.85c-11,7.6-22.61,11.78-35.72,13.87l-1.52,7.6c5.89,1.52,9.69,7.41,9.69,16.53v30.59c0,10.83-8.36,19.19-18.05,19.19-10.45,0-17.86-6.84-17.86-19.19V196.65h-2.85c-11,7.6-22.8,11.78-35.91,14.06l-1.52,7.41c5.7,1.52,9.69,7.41,9.69,16.53v28.12c0,28.12,14.82,40.66,34.39,40.66,17.1,0,27.36-8.74,33.25-18.05h.76L210,303.43h2.47c11.78-3.23,29.64-3.61,29.64-3.61l1.52-7.6C237.69,290.51,233.7,284.81,233.7,275.69Zm-117-18.24s-16.15,27.93-46.55,27.93a131.55,131.55,0,0,1-16.53-1.33V190.76c0-9.31,3.8-15,9.69-16.72l-1.52-7.41H9.5L8,174c5.89,1.71,9.68,7.41,9.68,16.72v84.93c0,9.12-3.79,14.82-9.68,16.53l1.51,7.41H81.14c7.41,0,23.56,1.33,27.55,3.61h2.85l12.92-42.18Z"/><path d="M520.41,303.24c25.27,0,45-12,45-35.15,0-18.81-18.24-26.6-36.1-32.3-12.92-4-24.13-8.17-24.13-16.91,0-5.51,4.56-9.69,12.54-9.69,11.21,0,26,8.93,35.53,25.27l7.79-2.28-6.65-31.73H552a13.16,13.16,0,0,1-8.74,3c-7.41,0-15-6.84-30.4-6.84-21.47,0-40.28,12-40.28,31,0,17.1,17.86,26.79,33.63,31.73,14.44,4.75,27.93,10.64,27.93,19.76,0,7.22-6.46,11.21-15,11.21-14.82,0-33.44-10.07-44.84-28.31l-6.46,2.09L476,299.63h2.47a13.64,13.64,0,0,1,8.74-3.23C495.52,296.78,507.68,303.24,520.41,303.24Z"/></g></g></svg>