<svg xmlns="http://www.w3.org/2000/svg" viewBox="0 0 557.72 303.43"><title>Asset 1</title><g id="Layer_2" data-name="Layer 2"><g id="Layer_1-2" data-name="Layer 1"><path d="M1.39,80.18C1.39,39.9,30.46,11,67.89,11c13.3,0,20.33,3.61,28.69,3.61a36.24,36.24,0,0,0,16-3.61h2.66l8.74,46.36L115,59.09C108,39.9,92.78,25.27,72.07,25.27c-17.1,0-35.15,15.39-35.15,42.94,0,37.05,22,60,45.22,60,21.85,0,30.78-19.57,34.39-31.54L125.46,99c-3,26.79-21.66,52.25-56.81,52.25C27,151.24,1.39,121.6,1.39,80.18Z"/><path d="M244.21,143.45c-6.08,6.08-15.77,7.79-22.23,7.79-9.12,0-20.52-2.85-24.7-16.15h-1.14c-6.46,12.35-19.95,16.15-30.59,16.15-17.86,0-32.3-10.07-32.3-27,0-26.79,29.83-33.06,56.43-38l-2.28-15.2c-1-7.79-5.7-12-11.4-12-5.32,0-10.26,3.8-9.12,9.69,2.09,9.12-5.13,15.39-13.68,15.39-8.74,0-13.87-5.7-13.87-14.82,0-11.78,12-24.51,39.52-24.51,21.47,0,38.76,11.4,42.18,37.43L226,121.79c1.14,9.88,4.75,16.15,10.64,16.15a11.7,11.7,0,0,0,4.94-1.14ZM194.05,115.9l-3-20.14c-14.82,3.23-26.6,9.69-26.6,22.61,0,9.5,6.46,15,14.82,15C186.83,133.38,194.24,124.83,194.05,115.9Z"/><path d="M239.84,140.22c5.89-1.71,9.88-7.22,9.88-16.53V38.76c0-9.31-4-15-9.88-16.53l1.71-7.41A100.77,100.77,0,0,0,280.31,0l2.47,1c-2.66,10.64-2.66,24.32-2.66,32.11v90.63c0,9.31,4,14.82,9.88,16.53l-1.52,7.41H241.55Z"/><path d="M296.84,140.22c5.89-1.71,9.88-7.22,9.88-16.53V38.76c0-9.31-4-15-9.88-16.53l1.71-7.41A100.77,100.77,0,0,0,337.31,0l2.47,1c-2.66,10.64-2.66,24.32-2.66,32.11v90.63c0,9.31,4,14.82,9.88,16.53l-1.52,7.41H298.55Z"/><path d="M354.41,140.22c5.89-1.71,9.88-7.22,9.88-16.53V82.46c0-9.12-4-14.82-9.88-16.53l1.52-7.41a86.48,86.48,0,0,0,35.91-13.87h2.85v79c0,9.31,3.8,14.82,9.88,16.53l-1.71,7.41H355.93ZM360.3,19.57c0-8.55,6.46-17.29,18.43-17.29,11.59,0,18.43,8.74,18.43,17.29s-6.84,16.91-18.43,16.91C366.76,36.48,360.3,28.12,360.3,19.57Z"/><path d="M557.72,129c0,13.1-11.21,20.88-26,20.88-8.73,0-15-2.36-19.7-6a59,59,0,0,1-26.2,6c-23.48,0-34.33-14.51-34.33-26.78,0-13,8.26-23.36,20.53-27.73v-.94a15.66,15.66,0,0,1-7.67-13.93c0-11.44,9.32-17.7,23.24-17.7s23.25,6.37,23.25,17.82c0,8-4.6,13.57-12.27,16v1.06c11.44,4.84,16.75,15.81,21.24,25.49a33.38,33.38,0,0,0,4-16.29c0-7.43-5.67-10-9.8-11.09l1.07-4.6h29.14l1.18,4.6c-4.13,1.06-9.79,4.37-9.79,11.45a38.45,38.45,0,0,1-10.39,26.78c2.6,4.25,5.55,7,9.92,7,3.89,0,7.66-2.47,7.66-6.72,0-4.72-4.6-6.14-4.6-11.33,0-4.13,3.31-7.2,8.26-7.2C554.18,115.77,557.72,122,557.72,129Zm-66.67,9.91a37.7,37.7,0,0,0,14.05-2.71c-7.79-12-9.68-28.32-18.65-34.81-7,4.48-13.69,11.56-13.69,20.41C472.76,130.05,479,138.9,491.05,138.9ZM479,81.08c0,6.61,3.66,10.62,8.61,10.62s8.5-3.89,8.5-10.5-3.54-10.74-8.5-10.74S479,74.36,479,81.08Z"/><path d="M116.47,261.06l-12.92,42.18H100.7c-4-2.28-20.14-3.61-27.55-3.61H1.52L0,292.22c5.89-1.71,9.69-7.41,9.69-16.53V190.76c0-9.31-3.8-15-9.69-16.72l1.52-7.41H53.77L55.29,174c-5.89,1.71-9.69,7.41-9.69,16.72v93.29a131.55,131.55,0,0,0,16.53,1.33c30.4,0,46.55-27.93,46.55-27.93Z"/><path d="M235.6,292.22l-1.52,7.6s-17.86.38-29.64,3.61H202l-4.75-18.05h-.76c-5.89,9.31-16.15,18.05-33.25,18.05-19.57,0-34.39-12.54-34.39-40.66V234.65c0-9.12-4-15-9.69-16.53l1.52-7.41c13.11-2.28,24.89-6.46,35.91-14.06h2.85v68.59c0,12.35,7.41,19.19,17.86,19.19,9.69,0,18-8.36,18-19.19V234.65c0-9.12-3.8-15-9.69-16.53l1.52-7.6c13.11-2.09,24.7-6.27,35.72-13.87h2.85v79C225.72,284.81,229.71,290.51,235.6,292.22Z"/><path d="M243.58,249.85c0-33.25,24.13-53,53.58-53,25.08,0,44.84,14.25,44.84,31.35,0,7.79-6.84,15-14.82,15-25.08,0-12.35-33.06-35-33.06-9.31,0-18.43,10.26-18.43,25.84,0,27.93,12.35,43.51,35.34,43.51,12.16,0,22.42-8.17,27-14.63l6.08,2.28c-3.23,18.81-14.82,36.1-43.7,36.1C265.24,303.24,243.58,278,243.58,249.85Z"/><path d="M458.66,295.45c-6.08,6.08-15.78,7.79-22.24,7.79-9.12,0-20.52-2.85-24.7-16.15h-1.14c-6.46,12.35-19.95,16.15-30.59,16.15-17.86,0-32.3-10.07-32.3-27,0-26.79,29.83-33.06,56.43-38l-2.28-15.2c-.95-7.79-5.7-12-11.4-12-5.32,0-10.26,3.8-9.12,9.69,2.09,9.12-5.13,15.39-13.68,15.39-8.74,0-13.87-5.7-13.87-14.82,0-11.78,12-24.51,39.52-24.51,21.47,0,38.76,11.4,42.18,37.43l4.95,39.52c1.13,9.88,4.75,16.15,10.63,16.15A11.74,11.74,0,0,0,456,288.8ZM408.49,267.9l-3-20.14c-14.82,3.23-26.6,9.69-26.6,22.61,0,9.5,6.46,15,14.82,15C401.27,285.38,408.68,276.83,408.49,267.9Z"/><path d="M479.17,296.4a13.64,13.64,0,0,0-8.74,3.23H468l-8.17-35.53,6.46-2.09c11.4,18.24,30,28.31,44.84,28.31,8.55,0,15-4,15-11.21,0-9.12-13.49-15-27.93-19.76-15.77-4.94-33.63-14.63-33.63-31.73,0-19,18.81-31,40.28-31,15.39,0,23,6.84,30.4,6.84a13.16,13.16,0,0,0,8.74-3h2.47l6.65,31.73-7.79,2.28c-9.5-16.34-24.32-25.27-35.53-25.27-8,0-12.54,4.18-12.54,9.69,0,8.74,11.21,12.92,24.13,16.91,17.86,5.7,36.1,13.49,36.1,32.3,0,23.18-19.76,35.15-45,35.15C499.69,303.24,487.53,296.78,479.17,296.4Z"/></g></g></svg>