<svg xmlns="http://www.w3.org/2000/svg" viewBox="0 0 257.28 56.64"><defs><style>.cls-1{fill:#231f20;}</style></defs><title>rsvp</title><g id="Layer_2" data-name="Layer 2"><g id="Layer_1-2" data-name="Layer 1"><path class="cls-1" d="M83,50.52c0,3.42-3.42,6.12-11.34,6.12-27.18,0-19.44-31.08-38.34-31.08H30V36.42c0,2.7,1.32,4.32,3.06,4.74l-.36,2H17.94l-.36-2c1.74-.42,3.06-2,3.06-4.74V5.16a55.92,55.92,0,0,0-8.88-1.38c-3,0-4.92,1.2-4.92,3.12C6.84,9,9,9.54,9,12.18a3.93,3.93,0,0,1-4.2,3.9C2,16.08,0,13.44,0,10.68.06,5.16,4,.06,13.8.06c5.94,0,7,1.14,17.82,1.14h8c10.5,0,17.64,4.32,17.64,12,0,5.7-3.66,9.72-10.56,11.4v.3c14.94,4.74,13,27.6,24,27.6,5.34,0,3.3-5.7,8.34-5.7A3.69,3.69,0,0,1,83,50.52ZM30,5.64V21.42h7.2c7.5,0,10.62-3.3,10.62-7.92,0-5.34-4.5-8.4-11.22-8.4A36.26,36.26,0,0,0,30,5.64Z"/><path class="cls-1" d="M70.5,38.82a5.58,5.58,0,1,1,5.58,5.46A5.41,5.41,0,0,1,70.5,38.82Z"/><path class="cls-1" d="M99.3,42.24a6.49,6.49,0,0,0-3.24.9h-.78l-3.36-13.2,2.4-.9c3.3,6.72,9.3,11.76,16.56,11.76,5,0,8.88-2.88,8.88-7,0-5.22-5.64-6.78-11.64-8.52-7-2.1-14.52-4.38-14.52-13.2C93.6,4.5,100.62,0,108.84,0c5.76,0,8.52,1.86,11.4,1.86a5.15,5.15,0,0,0,2.64-.72h.9L126.9,13l-2.34.66c-2.82-6.12-8.22-10.14-14.76-10.14-4.74,0-7.62,2.58-7.62,5.76,0,4.56,5.34,5.88,11.22,7.5,7.26,2,15.24,4.32,15.24,13.56,0,8.46-7.56,13.92-17.4,13.92C106.2,44.28,103.14,42.24,99.3,42.24Z"/><path class="cls-1" d="M139.32,38.82a5.58,5.58,0,1,1,5.58,5.46A5.41,5.41,0,0,1,139.32,38.82Z"/><path class="cls-1" d="M193.74,3.18c-1.8.42-3.6,1.92-4.5,4.68L178.2,40a8.66,8.66,0,0,0,1.62,2l-.24,1.14a34.79,34.79,0,0,0-9.6,1.08h-.48L157,7.86c-1-2.76-2.76-4.26-4.5-4.68l.42-2h15.12l.36,2c-1.44.42-2.4,1.92-1.5,4.68l8.94,26h.42l9-26c1-2.76-.06-4.26-1.44-4.68l.36-2h9.18Z"/><path class="cls-1" d="M195.78,38.82a5.58,5.58,0,1,1,5.58,5.46A5.41,5.41,0,0,1,195.78,38.82Z"/><path class="cls-1" d="M257.28,15.3c0,7.62-6.54,14.52-18.72,14.52a49.9,49.9,0,0,1-9.24-.84v7.44c0,2.7,1.32,4.26,3.06,4.68l-.36,2H217.26l-.36-2c1.74-.42,3.06-2,3.06-4.68V7.86c0-2.7-1.32-4.26-3.06-4.68l.36-2h22.56C250.44,1.14,257.28,7.44,257.28,15.3Zm-9.48,0c0-5.64-5-10.26-11.7-10.26a32.15,32.15,0,0,0-6.78.66V24.6a25.38,25.38,0,0,0,7.62,1.14C244.38,25.74,247.8,20.4,247.8,15.3Z"/></g></g></svg>