<svg xmlns="http://www.w3.org/2000/svg" viewBox="0 0 906.1 192.66"><title>Saturday</title><g id="Layer_2" data-name="Layer 2"><g id="Layer_1-2" data-name="Layer 1"><path d="M121.22,24.7c14.63,0,31.92,4.75,31.92,14.25,0,7.79-10.83,9.5-22,9.5-15.2,0-26-7.6-37.24-16C99.18,27,108.3,24.7,121.22,24.7Zm-.76,51.49C103,71.25,87.78,65.55,87.78,50.54A38.16,38.16,0,0,1,88,45.79C99.75,54,112.67,61.18,131.1,61.18c17.1,0,37.43-5.13,37.43-23,0-16-19.57-27.36-50-27.36-16,0-31,3.23-42.37,9.69-9.12-4.94-19.38-8.74-32.87-8.74C17.67,11.78,0,27.55,0,48.26c0,9.88,5.89,18.62,15.39,18.62,8.55,0,15-5.32,15-13.68,0-6.27-4.37-8.74-4.37-14.06,0-7.22,5.13-13.87,17.29-13.87A46.24,46.24,0,0,1,64,30.21c-6.27,7-9.88,16.15-9.88,27.17C54.15,88,77.52,98.8,98.8,105.45c19.38,6.08,46.93,14.06,46.93,39.14,0,24.32-19.19,36.1-42.18,36.1s-46.74-14.25-46.74-34.2c0-12.35,6.46-21.28,17.29-21.28,5.51,0,10.07,3.8,10.07,8.17,0,5.32-2.85,6.27-2.85,13.3,0,7.6,7.22,12.92,15.77,12.92,10.26,0,16.72-8.74,16.72-20.71,0-13.11-11.4-29.45-34.58-29.45-18.62,0-37.81,13.11-37.81,36.86,0,27.55,27.17,46.36,61.37,46.36,44.65,0,75.81-23.56,75.81-59.47C178.6,96.71,144.4,83,120.46,76.19Z"/><path d="M888.62,44.46c-9.12,0-16.15,5.51-16.15,14.25,0,12.54,13.87,13.3,14.25,20.52.19,3.8-.57,8-3.61,16.72a136.24,136.24,0,0,1-7.6,21.85h-1.14L839.6,44.46h-2.66c-6.08,8-20.33,12.92-32.49,14.82l-1.52,7.6a30.23,30.23,0,0,1,20.33,16.53l29.83,64h6.65a92.94,92.94,0,0,1-6.65,9.5c-5.89,8.36-10.64,12.35-14.63,12.35-4.37,0-5.89-11-17.86-11-8.55,0-15.39,6.08-15.39,15.2,0,9.88,8.74,16.53,19.38,16.53,15.2,0,26.41-8.17,38.95-24.32,16-19.19,26.6-42.75,34.2-65.93,5.89-16.34,8.36-29.07,8.36-36.86C906.1,53,899.45,44.46,888.62,44.46ZM749.35,133.19c-8.36,0-14.82-5.51-14.82-15,0-12.92,11.78-19.38,26.6-22.61l3,20.14C764.36,124.64,757,133.19,749.35,133.19Zm62.32,3.42a11.7,11.7,0,0,1-4.94,1.14c-5.89,0-9.5-6.27-10.64-16.15l-4.94-39.52c-3.42-26-20.71-37.43-42.18-37.43-27.55,0-39.52,12.73-39.52,24.51,0,9.12,5.13,14.82,13.87,14.82,8.55,0,15.77-6.27,13.68-15.39-1.14-5.89,3.8-9.69,9.12-9.69,5.7,0,10.45,4.18,11.4,12l2.28,15.2c-26.6,4.94-56.43,11.21-56.43,38,0,16.91,14.44,27,32.3,27,10.64,0,24.13-3.8,30.59-16.15h1.14c4.18,13.3,15.58,16.15,24.7,16.15,6.46,0,16.15-1.71,22.23-7.79ZM639,135.85c-19.57,0-27.36-34.2-27.36-50.73,0-13.87,6.65-25.27,17.48-25.27,19.76,0,27.36,32.87,27.36,50.73C656.44,125.4,649.79,135.85,639,135.85ZM687,123.5V32.87c0-7.6,0-21.47,2.47-31.92L687.22,0a100.76,100.76,0,0,1-38.76,14.63L646.94,22c5.89,1.71,9.88,7.41,9.88,16.53v18h-1.33a36,36,0,0,0-27.17-12c-27.74,0-45.79,22-45.79,53,0,31.35,20.14,53.39,46.55,53.39,12.16,0,21.28-3.23,30-12.92h1.33l3.23,13.11h2.47c11.78-3.42,29.07-3.8,29.07-3.8l1.52-7.41C690.83,138.32,687,132.62,687,123.5Zm-131.86-79c-11.78,0-21.47,5.89-27.55,15.39h-1l-.95-15.39h-2.66c-11,7.41-20.9,12.92-34.2,14.82l-1.52,7.6c5.89,1.52,9.69,7.41,9.69,16.53V123.5c0,9.12-3.8,14.82-9.69,16.53l1.52,7.41h46.93L537.5,140c-5.89-1.71-10.07-7.41-10.07-16.53V81.89c0-8.55,4.56-16,9.5-16,9.31,0,4.18,18,22.42,18,9.69,0,17.48-8.17,17.48-18.62C576.83,53.77,568.09,44.46,555.17,44.46Zm-84.54,79v-79h-2.85c-11,7.6-22.61,11.78-35.72,13.87l-1.52,7.6c5.89,1.52,9.69,7.41,9.69,16.53v30.59c0,10.83-8.36,19.19-18.05,19.19-10.45,0-17.86-6.84-17.86-19.19V44.46h-2.85c-11,7.6-22.8,11.78-35.91,14.06L364,65.93c5.7,1.52,9.69,7.41,9.69,16.53v28.12c0,28.12,14.82,40.66,34.39,40.66,17.1,0,27.36-8.74,33.25-18.05h.76l4.75,18.05h2.47C461.13,148,479,147.63,479,147.63l1.52-7.6C474.62,138.32,470.63,132.62,470.63,123.5ZM332.88,151.05c7.6,0,19.38-2.28,24.89-4.37l-2.85-12.35a36.79,36.79,0,0,1-11.21,2.28c-6.27,0-10.45-3.8-10.45-13.49V63.46h24.89V48.26H333.26V20.33H324c-7.79,15.58-20.9,27.36-38.57,32.49V63.46h17.1v59.09C302.48,143.07,313.69,151.05,332.88,151.05Zm-98.8-17.86c-8.36,0-14.82-5.51-14.82-15,0-12.92,11.78-19.38,26.6-22.61l3,20.14C249.09,124.64,241.68,133.19,234.08,133.19Zm62.32,3.42a11.7,11.7,0,0,1-4.94,1.14c-5.89,0-9.5-6.27-10.64-16.15l-4.94-39.52c-3.42-26-20.71-37.43-42.18-37.43-27.55,0-39.52,12.73-39.52,24.51,0,9.12,5.13,14.82,13.87,14.82,8.55,0,15.77-6.27,13.68-15.39-1.14-5.89,3.8-9.69,9.12-9.69,5.7,0,10.45,4.18,11.4,12l2.28,15.2c-26.6,4.94-56.43,11.21-56.43,38,0,16.91,14.44,27,32.3,27,10.64,0,24.13-3.8,30.59-16.15h1.14c4.18,13.3,15.58,16.15,24.7,16.15,6.46,0,16.15-1.71,22.23-7.79Z"/></g></g></svg>