<svg xmlns="http://www.w3.org/2000/svg" viewBox="0 0 600.59 309.24"><title>travelInfoText</title><g id="Layer_2" data-name="Layer 2"><g id="Layer_1-2" data-name="Layer 1"><path d="M101.65,42.37V123.5c0,9.31,4,15,9.88,16.72L110,147.63H57.76l-1.52-7.41c5.89-1.71,9.69-7.41,9.69-16.72V32.11c-9.5-3.8-18.05-7.41-27.74-7.41-8.74,0-12.92,2.47-12.92,7.79,0,7.22,7.41,10.64,7.41,20.14,0,7.79-6.27,14.25-15.39,14.25C7.41,66.88,0,57.57,0,47.69,0,28.31,16.72,11,43.7,11,75.05,11,92,22,122,22c10.07,0,20.52-4.37,24.32-10.64h2.28l6.84,5.89c-6.27,15-26,25.46-45,25.46C107.35,42.75,104.5,42.56,101.65,42.37Z"/><path d="M237.88,65.55c0,10.45-7.79,18.62-17.48,18.62-18.24,0-13.11-18-22.42-18-4.94,0-9.5,7.41-9.5,16v41.61c0,9.12,4.18,14.82,10.07,16.53l-1.71,7.41H149.91l-1.52-7.41c5.89-1.71,9.69-7.41,9.69-16.53V83.6c0-9.12-3.8-15-9.69-16.53l1.52-7.6c13.3-1.9,23.18-7.41,34.2-14.82h2.66L187.72,60h.95c6.08-9.5,15.77-15.39,27.55-15.39C229.14,44.65,237.88,54,237.88,65.55Z"/><path d="M352.26,143.45c-6.08,6.08-15.77,7.79-22.23,7.79-9.12,0-20.52-2.85-24.7-16.15h-1.14c-6.46,12.35-19.95,16.15-30.59,16.15-17.86,0-32.3-10.07-32.3-27,0-26.79,29.83-33.06,56.43-38l-2.28-15.2c-.95-7.79-5.7-12-11.4-12-5.32,0-10.26,3.8-9.12,9.69,2.09,9.12-5.13,15.39-13.68,15.39-8.74,0-13.87-5.7-13.87-14.82,0-11.78,12-24.51,39.52-24.51,21.47,0,38.76,11.4,42.18,37.43L334,121.79c1.14,9.88,4.75,16.15,10.64,16.15a11.7,11.7,0,0,0,4.94-1.14ZM302.1,115.9l-3-20.14c-14.82,3.23-26.6,9.69-26.6,22.61,0,9.5,6.46,15,14.82,15C294.88,133.38,302.29,124.83,302.1,115.9Z"/><path d="M438,61.75c0,7.6-4.56,17.48-9.88,28.69L400.9,147.63H380.76l-25.65-64c-4-9.69-10.07-15-16.91-16.53l1.33-7.6c12.35-1.9,23.75-6.84,30.59-14.82H373l27.93,70.87h.76l14.63-31.16a17.47,17.47,0,0,0,1.52-4.94c0-6.65-12.73-6.84-12.73-20.14,0-8.74,6.46-14.63,16.34-14.63C432.44,44.65,438,50.92,438,61.75Z"/><path d="M536.75,112.48l6.08,2.28c-1.71,18.43-18.81,36.48-45.41,36.48-32.87,0-54.53-25.08-54.53-53.39,0-32.87,23.75-53,53.39-53,20.52,0,35.72,10.45,41.61,25.65,1.52,3.8,3.61,6.46,6.65,7l1.71,9.31-68.78,20c5.51,14.25,16.91,20.71,32.68,20.71C522.88,127.49,532.57,118.75,536.75,112.48Zm-62.7-27.93a75.11,75.11,0,0,0,.57,9.5l36.67-10.64c-.76-11-6.65-23.94-18.62-23.94C482,59.47,474.05,71.06,474.05,84.55Z"/><path d="M550.43,140.22c5.89-1.71,9.88-7.22,9.88-16.53V38.76c0-9.31-4-15-9.88-16.53l1.71-7.41A100.77,100.77,0,0,0,590.9,0l2.47,1c-2.66,10.64-2.66,24.32-2.66,32.11v90.63c0,9.31,4,14.82,9.88,16.53l-1.52,7.41H552.14Z"/><path d="M53.22,298.22c5.89-1.71,9.69-7.41,9.69-16.53V196.76c0-9.31-3.8-15-9.69-16.72l1.52-7.41H107l1.52,7.41c-5.89,1.71-9.69,7.41-9.69,16.72v84.93c0,9.12,3.8,14.82,9.69,16.53L107,305.63H54.74Z"/><path d="M233.53,298.22,232,305.63H185.08l-1.71-7.41c5.7-1.71,8.93-7.22,8-16.53L187.17,241c-.95-11-5.89-19.38-16-19.38-9.69,0-15.77,8.74-15.77,19.38v40.66c0,9.31,4.37,14.82,10.07,16.53L164,305.63H117.06l-1.33-7.41c5.7-1.71,9.5-7.22,9.5-16.53V241.41c0-9.12-3.8-14.82-9.69-16.53l1.52-7.41c13.3-2.09,23.18-7.22,34.2-14.82h2.66l.76,14.82h1.14c5.13-7.79,13.68-14.82,26.6-14.82,21.47,0,33.44,12.73,36.1,40.66l3.42,38.38C222.89,291,227.45,296.51,233.53,298.22Z"/><path d="M271.53,206.45h29.83v15H273.81v60.23c0,9.31,3.8,15,9.69,16.53L282,305.63H235.05l-1.52-7.41c5.89-1.52,9.69-7.22,9.69-16.53V221.46H224.79v-15h17.86c-1.14-7.22-3.23-13.11-3.23-20.33,0-16.53,12.16-30.78,34.39-30.78,15.77,0,28.31,9.88,28.31,22.8,0,7.41-4.37,13.49-12.35,13.49-18,0-9.12-21.09-21.47-21.09-4.37,0-6.46,3.42-6.46,8.36C261.84,187.07,268.49,198.85,271.53,206.45Z"/><path d="M302.31,255.66c0-31,20.33-53,52.25-53S407,224.88,407,256.23c0,31-20.14,53-51.87,53C322.83,309.24,302.31,286.63,302.31,255.66Zm75.43,13.11c0-13.68-9.69-50.73-29.64-50.73-11.78,0-16.53,11-16.53,25.27,0,15,9.69,50.73,29.83,50.73C373.18,294,377.74,282.45,377.74,268.77Z"/></g></g></svg>